<?xml version="1.0" encoding="UTF-8"?>
<svg width="20px" height="20px" viewBox="0 0 20 20" version="1.1" xmlns="http://www.w3.org/2000/svg" xmlns:xlink="http://www.w3.org/1999/xlink">
    <!-- Generator: Sketch 52.6 (67491) - http://www.bohemiancoding.com/sketch -->
    <title>menu</title>
    <desc>Created with Sketch.</desc>
    <g id="V2" stroke="none" stroke-width="1" fill="none" fill-rule="evenodd">
        <g id="landing-page" transform="translate(-330.000000, -50.000000)" fill="#242E4C">
            <g id="menu" transform="translate(330.000000, 50.000000)">
                <path d="M19.1921094,9.33333333 L0.807890625,9.33333333 C0.36171875,9.33333333 0,9.78101731 0,10.3333333 C0,10.8856494 0.36171875,11.3333333 0.807890625,11.3333333 L19.1921094,11.3333333 C19.6383203,11.3333333 20,10.8856494 20,10.3333333 C20,9.78106566 19.6383203,9.33333333 19.1921094,9.33333333 Z" id="Path"></path>
                <path d="M19.1921094,0 L0.807890625,0 C0.36171875,0 0,0.447732328 0,1 C0,1.55226767 0.36171875,2 0.807890625,2 L19.1921094,2 C19.6383203,2 20,1.55226767 20,1 C20,0.447732328 19.6383203,0 19.1921094,0 Z" id="Path"></path>
                <path d="M19.1921094,18 L0.807890625,18 C0.36171875,18 0,18.447684 0,19 C0,19.552316 0.36171875,20 0.807890625,20 L19.1921094,20 C19.6383203,20 20,19.552316 20,19 C20,18.447684 19.6383203,18 19.1921094,18 Z" id="Path"></path>
            </g>
        </g>
    </g>
</svg>